# xmcd
# Track frame offsets:
# 150
# 13070
# 23055
# 31119
# 43470
# 55540
# 68300
# 80250
# 90627
# 99895
# 111062
# 124357
# 134917
# 145170
#
# Disc length: 2089 seconds
# Revision: 0
# Processed by: cddbd v1.4PL0 Copyright (c) Steve Scherf et al.
# Submitted via: VisiTrax 2.9.5.181 - For more info visit www.synapsa.com
#
DISCID=b208270e
DTITLE=Various Artist - Country Roads - Four in the Morning
DYEAR=1997
DGENRE=Country
TTITLE0=Kenny Rogers and The First Edition - Ruby don`t take your love to town
TTITLE1=Don Williams - Take my hand
TTITLE2=Don Gibson - Blue Day,Blue Day
TTITLE3=Patsy Cline - A poor man`s roses
TTITLE4=Merle Haggard - Okie from Muskogee
TTITLE5=Faron Young - Four in the morning
TTITLE6=Carl Perkins - Matchbox
TTITLE7=Rick Nelson - Hello Mary Lou
TTITLE8=Willie Nelson - One step Beyond
TTITLE9=Conway Twitty - It`s only make believe
TTITLE10=Alabama - Patches
TTITLE11=Waylon Jennings - Dream baby
TTITLE12=Carl Perkins - Daddy sang bass
TTITLE13=Donna Fargo - The happiest girl in the USA
EXTD=
EXTT0=
EXTT1=
EXTT2=
EXTT3=
EXTT4=
EXTT5=
EXTT6=
EXTT7=
EXTT8=
EXTT9=
EXTT10=
EXTT11=
EXTT12=
EXTT13=
PLAYORDER=
